<svg xmlns="http://www.w3.org/2000/svg" xmlns:xlink="http://www.w3.org/1999/xlink" width="500" zoomAndPan="magnify" viewBox="0 0 375 374.999991" height="500" preserveAspectRatio="xMidYMid meet" version="1.0"><defs><g/></defs><g fill="#292929" fill-opacity="1"><g transform="translate(97.360361, 193.489631)"><g><path d="M 26.390625 0 L 25 -17.390625 L 24.828125 -17.390625 L 18.8125 -0.171875 L 14.828125 -0.171875 L 8.8125 -17.390625 L 8.640625 -17.390625 L 7.25 0 L 0.5625 0 L 3.203125 -29.34375 L 10.3125 -29.34375 L 16.828125 -12.40625 L 23.328125 -29.34375 L 30.4375 -29.34375 L 33.078125 0 Z M 26.390625 0 "/></g></g></g><g fill="#292929" fill-opacity="1"><g transform="translate(127.971634, 193.489631)"><g><path d="M 0.8125 -14.6875 C 0.8125 -18.925781 2.257812 -22.515625 5.15625 -25.453125 C 8.050781 -28.398438 11.535156 -29.875 15.609375 -29.875 C 19.710938 -29.875 23.195312 -28.410156 26.0625 -25.484375 C 28.9375 -22.554688 30.375 -18.957031 30.375 -14.6875 C 30.375 -10.394531 28.960938 -6.785156 26.140625 -3.859375 C 23.316406 -0.929688 19.804688 0.53125 15.609375 0.53125 C 11.316406 0.53125 7.773438 -0.914062 4.984375 -3.8125 C 2.203125 -6.71875 0.8125 -10.34375 0.8125 -14.6875 Z M 8.03125 -14.6875 C 8.03125 -13.144531 8.265625 -11.738281 8.734375 -10.46875 C 9.210938 -9.207031 10.046875 -8.132812 11.234375 -7.25 C 12.421875 -6.375 13.878906 -5.9375 15.609375 -5.9375 C 18.097656 -5.9375 19.976562 -6.789062 21.25 -8.5 C 22.519531 -10.207031 23.15625 -12.269531 23.15625 -14.6875 C 23.15625 -17.082031 22.507812 -19.140625 21.21875 -20.859375 C 19.925781 -22.578125 18.054688 -23.4375 15.609375 -23.4375 C 13.191406 -23.4375 11.320312 -22.578125 10 -20.859375 C 8.6875 -19.140625 8.03125 -17.082031 8.03125 -14.6875 Z M 8.03125 -14.6875 "/></g></g></g><g fill="#292929" fill-opacity="1"><g transform="translate(156.129637, 193.489631)"><g><path d="M 0.8125 -14.6875 C 0.8125 -18.925781 2.257812 -22.515625 5.15625 -25.453125 C 8.050781 -28.398438 11.535156 -29.875 15.609375 -29.875 C 19.710938 -29.875 23.195312 -28.410156 26.0625 -25.484375 C 28.9375 -22.554688 30.375 -18.957031 30.375 -14.6875 C 30.375 -10.394531 28.960938 -6.785156 26.140625 -3.859375 C 23.316406 -0.929688 19.804688 0.53125 15.609375 0.53125 C 11.316406 0.53125 7.773438 -0.914062 4.984375 -3.8125 C 2.203125 -6.71875 0.8125 -10.34375 0.8125 -14.6875 Z M 8.03125 -14.6875 C 8.03125 -13.144531 8.265625 -11.738281 8.734375 -10.46875 C 9.210938 -9.207031 10.046875 -8.132812 11.234375 -7.25 C 12.421875 -6.375 13.878906 -5.9375 15.609375 -5.9375 C 18.097656 -5.9375 19.976562 -6.789062 21.25 -8.5 C 22.519531 -10.207031 23.15625 -12.269531 23.15625 -14.6875 C 23.15625 -17.082031 22.507812 -19.140625 21.21875 -20.859375 C 19.925781 -22.578125 18.054688 -23.4375 15.609375 -23.4375 C 13.191406 -23.4375 11.320312 -22.578125 10 -20.859375 C 8.6875 -19.140625 8.03125 -17.082031 8.03125 -14.6875 Z M 8.03125 -14.6875 "/></g></g></g><g fill="#292929" fill-opacity="1"><g transform="translate(184.287639, 193.489631)"><g><path d="M 11.3125 0 L -1 -29.34375 L 6.546875 -29.34375 L 13.9375 -10.0625 L 21.34375 -29.34375 L 28.875 -29.34375 L 16.578125 0 Z M 11.3125 0 "/></g></g></g><g fill="#c22929" fill-opacity="1"><g transform="translate(209.14551, 193.489631)"><g><path d="M 17.03125 -29.34375 L 28.875 0 L 21.6875 0 L 19.53125 -5.875 L 8.359375 -5.875 L 6.1875 0 L -1 0 L 10.84375 -29.34375 Z M 17.25 -11.734375 L 13.96875 -20.265625 L 13.90625 -20.265625 L 10.640625 -11.734375 Z M 17.25 -11.734375 "/></g></g></g><g fill="#c22929" fill-opacity="1"><g transform="translate(233.996926, 193.489631)"><g><path d="M 2.140625 -29.34375 L 12.625 -29.34375 C 15.445312 -29.34375 17.742188 -28.585938 19.515625 -27.078125 C 21.296875 -25.578125 22.1875 -23.425781 22.1875 -20.625 C 22.1875 -18.46875 21.644531 -16.660156 20.5625 -15.203125 C 19.488281 -13.742188 18.03125 -12.71875 16.1875 -12.125 L 26.28125 0 L 17.78125 0 L 8.8125 -11.59375 L 8.8125 0 L 2.140625 0 Z M 8.8125 -16.328125 L 9.609375 -16.328125 C 10.222656 -16.328125 10.742188 -16.335938 11.171875 -16.359375 C 11.597656 -16.378906 12.082031 -16.460938 12.625 -16.609375 C 13.164062 -16.753906 13.601562 -16.957031 13.9375 -17.21875 C 14.269531 -17.476562 14.554688 -17.851562 14.796875 -18.34375 C 15.035156 -18.84375 15.15625 -19.445312 15.15625 -20.15625 C 15.15625 -20.875 15.035156 -21.476562 14.796875 -21.96875 C 14.554688 -22.46875 14.269531 -22.847656 13.9375 -23.109375 C 13.601562 -23.367188 13.164062 -23.570312 12.625 -23.71875 C 12.082031 -23.863281 11.597656 -23.945312 11.171875 -23.96875 C 10.742188 -23.988281 10.222656 -24 9.609375 -24 L 8.8125 -24 Z M 8.8125 -16.328125 "/></g></g></g><g fill="#c22929" fill-opacity="1"><g transform="translate(256.430629, 193.489631)"><g><path d="M 0.28125 -23.46875 L 0.28125 -29.34375 L 20.90625 -29.34375 L 20.90625 -23.46875 L 13.9375 -23.46875 L 13.9375 0 L 7.25 0 L 7.25 -23.46875 Z M 0.28125 -23.46875 "/></g></g></g><path stroke-linecap="butt" transform="matrix(0.75, 0, 0, 0.75, 71.519361, 208.288405)" fill="none" stroke-linejoin="miter" d="M 0.000226462 5.000877 L 84.432524 5.000877 " stroke="#292929" stroke-width="10" stroke-opacity="1" stroke-miterlimit="4"/><path stroke-linecap="butt" transform="matrix(0, 0.75, -0.75, 0, 79.015516, 151.694712)" fill="none" stroke-linejoin="miter" d="M 0.000801148 4.999855 L 82.464348 4.999855 " stroke="#292929" stroke-width="10" stroke-opacity="1" stroke-miterlimit="4"/><path stroke-linecap="butt" transform="matrix(-0.75, 0, 0, -0.75, 301.254594, 148.327433)" fill="none" stroke-linejoin="miter" d="M 0.000917424 4.999077 L 84.433215 4.999077 " stroke="#292929" stroke-width="10" stroke-opacity="1" stroke-miterlimit="4"/><path stroke-linecap="butt" transform="matrix(0, -0.75, 0.75, 0, 293.758432, 204.921123)" fill="none" stroke-linejoin="miter" d="M -0.00100221 4.999174 L 82.462545 4.999174 " stroke="#292929" stroke-width="10" stroke-opacity="1" stroke-miterlimit="4"/><path stroke-linecap="butt" transform="matrix(0.75, -0.000000000000000279, 0.000000000000000279, 0.75, 71.519361, 208.28839)" fill="none" stroke-linejoin="miter" d="M 0.000226462 5.000897 L 179.30753 5.000897 " stroke="#292929" stroke-width="10" stroke-opacity="1" stroke-miterlimit="4"/><path stroke-linecap="butt" transform="matrix(0.75, -0.000000000000000372, 0.000000000000000372, 0.75, 217.102051, 140.835123)" fill="none" stroke-linejoin="miter" d="M -0.000651392 5.001087 L 112.212898 5.001087 " stroke="#292929" stroke-width="10" stroke-opacity="1" stroke-miterlimit="4"/></svg>